D:\PredSimResults\Vitruvian_Man\IG_v16ms_ATx70.mot
version=1
nRows=10
nColumns=31
inDegrees=yes
endheader
                time	         pelvis_tilt	           pelvis_tx	           pelvis_ty	       hip_flexion_r	        knee_angle_r	       ankle_angle_r	       hip_flexion_l	        knee_angle_l	       ankle_angle_l	    lumbar_extension	          arm_flex_r	          arm_flex_l	hamstrings_r/activation	bifemsh_r/activation	glut_max_r/activation	iliopsoas_r/activation	rect_fem_r/activation	  vasti_r/activation	gastroc_r/activation	 soleus_r/activation	tib_ant_r/activation	hamstrings_l/activation	bifemsh_l/activation	glut_max_l/activation	iliopsoas_l/activation	rect_fem_l/activation	  vasti_l/activation	gastroc_l/activation	 soleus_l/activation	tib_ant_l/activation	
          1.37896123	         -9.09719491	          2.18746254	          0.97517640	         -8.33397200	        -10.05649928	         -2.88789879	         29.11066999	          1.38237211	          2.12664379	         -4.30109908	          3.88136772	          3.84388693	          0.05000042	          0.15757287	          0.05000017	          0.50496649	          0.05000027	          0.05000012	          0.30880805	          0.23483515	          0.05000007	          0.50787869	          0.05000294	          0.12159618	          0.05000053	          0.05766332	          0.05000706	          0.05970835	          0.05814296	          0.48499103	
          1.38815430	         -9.51012910	          2.20661167	          0.97314467	         -7.37868710	        -12.79803456	         -4.25888036	         28.33283550	          1.78216329	          1.03971556	         -3.20752225	          3.12878478	          3.09077720	          0.05296799	          0.13663771	          0.05000015	          0.43787607	          0.05000013	          0.05000007	          0.26777946	          0.20363468	          0.05000005	          0.45217353	          0.05000374	          0.16002408	          0.05000020	          0.05000235	          0.05001099	          0.05177602	          0.05041820	          0.64392529	
          1.39734738	         -9.91395460	          2.22568249	          0.97138755	         -6.15768424	        -15.89917534	         -6.17647143	         27.53199438	          2.11302450	         -0.36887741	         -2.11713802	          2.37064110	          2.33227272	          0.05000023	          0.11848399	          0.05000021	          0.37969934	          0.05000383	          0.05000007	          0.23220197	          0.17657953	          0.05000005	          0.39278640	          0.10461563	          0.18278791	          0.05000017	          0.05000031	          0.05000185	          0.05000012	          0.05000003	          0.77922932	
          1.40654045	        -10.31087260	          2.24426066	          0.97022865	         -4.65980208	        -19.26790794	         -8.82432653	         26.73856115	          2.60613363	         -2.60030640	         -1.08596822	          1.66870630	          1.63016604	          0.05000060	          0.10274222	          0.05000024	          0.32925205	          0.14107054	          0.05000010	          0.20135135	          0.15311897	          0.30272255	          0.35795832	          0.09071735	          0.21635082	          0.05000010	          0.05000032	          0.05000447	          0.05000016	          0.05000006	          0.86311947	
          1.41573353	        -10.69569987	          2.26213298	          0.96969875	         -2.97296687	        -22.73962954	        -11.59079813	         26.02930859	          2.96038584	         -4.57393572	         -0.14842710	          1.05609148	          1.01756782	          0.05000019	          0.08909231	          0.05000013	          0.28550724	          0.22355354	          0.05000005	          0.17459961	          0.13277541	          0.26250249	          0.31734744	          0.07866596	          0.22479002	          0.05000012	          0.05000036	          0.05000537	          0.05000013	          0.05000005	          0.91513239	
          1.42492660	        -11.06086759	          2.27927594	          0.96980576	         -1.21854332	        -26.13587662	        -12.66166597	         25.39344908	          3.16496527	         -6.17633644	          0.68190141	          0.53912641	          0.50080718	          0.05000021	          0.07986073	          0.05000008	          0.24757442	          0.30068002	          0.05000004	          0.15140214	          0.11513472	          0.40487329	          0.28546863	          0.06821812	          0.23027063	          0.05000018	          0.05000046	          0.05000410	          0.05000015	          0.05000006	          0.94738101	
          1.43411968	        -11.39730123	          2.29581310	          0.97058055	          0.50520240	        -29.23415370	        -12.46080698	         24.79501962	          3.24227605	         -7.30486269	          1.40746133	          0.10368460	          0.06575964	          0.05000028	          0.11932824	          0.05000008	          0.21468141	          0.36831582	          0.05000003	          0.13128672	          0.09983779	          0.43215024	          0.25611222	          0.05915721	          0.23826985	          0.05000019	          0.05000046	          0.05000447	          0.05000018	          0.05000008	          0.96737554	
          1.44331275	        -11.69814506	          2.31187793	          0.97200862	          2.14075009	        -31.85966581	        -12.23859048	         24.20158217	          3.21657109	         -7.88874771	          2.03500231	         -0.26618287	         -0.30352668	          0.05000034	          0.14839623	          0.05000009	          0.18615865	          0.41852655	          0.05000004	          0.11384390	          0.08657324	          0.42870230	          0.22835121	          0.05130006	          0.24486535	          0.05000017	          0.05000044	          0.05000606	          0.05000024	          0.05000012	          0.97977235	
          1.45250583	        -11.95632695	          2.32757274	          0.97402113	          3.65692891	        -33.98640331	        -11.78919519	         23.58454667	          3.11951750	         -7.93834404	          2.56763883	         -0.58191129	         -0.61849640	          0.05000028	          0.18543308	          0.05000009	          0.16142618	          0.44789070	          0.05000005	          0.09871856	          0.07507103	          0.41663779	          0.20035931	          0.05000518	          0.24309303	          0.05000017	          0.05000046	          0.05000803	          0.05000032	          0.05000019	          0.98745821	
          1.46169890	        -12.16449100	          2.34297961	          0.97652983	          5.03983553	        -35.62993772	        -11.03524858	         22.91929490	          2.98967804	         -7.56858337	          3.00563802	         -0.85196049	         -0.88762130	          0.05000032	          0.23979392	          0.05000010	          0.15609101	          0.45616927	          0.05000006	          0.08560278	          0.06509702	          0.39332347	          0.17495218	          0.05000567	          0.23627085	          0.05000016	          0.05000042	          0.05000870	          0.05000037	          0.05000025	          0.89804328	
